<?xml version="1.0" encoding="utf-8"?>
<!-- Generator: Adobe Illustrator 24.2.1, SVG Export Plug-In . SVG Version: 6.00 Build 0)  -->
<svg version="1.1" id="Layer_1" xmlns="http://www.w3.org/2000/svg" xmlns:xlink="http://www.w3.org/1999/xlink" x="0px" y="0px"
	 viewBox="0 0 75 75" style="enable-background:new 0 0 75 75;" xml:space="preserve">
<path d="M37.5,0C16.8,0,0,16.8,0,37.5S16.8,75,37.5,75S75,58.2,75,37.5S58.2,0,37.5,0z M37.5,2.7c19.2,0,34.8,15.6,34.8,34.8
	S56.7,72.3,37.5,72.3S2.7,56.7,2.7,37.5S18.3,2.7,37.5,2.7z M41.5,18.8c-0.7,0-1.4,0.3-1.9,0.8c-0.5,0.5-0.8,1.2-0.8,1.9v12.1
	c0,0.7,0.3,1.4,0.8,1.9c0.5,0.5,1.2,0.8,1.9,0.8h12.1c0.7,0,1.4-0.3,1.9-0.8c0.5-0.5,0.8-1.2,0.8-1.9V21.4c0-0.7-0.3-1.4-0.8-1.9
	c-0.5-0.5-1.2-0.8-1.9-0.8H41.5z M27.5,18.9c-0.8,0-1.7,0.4-2.3,1.2l0,0.1l-6.2,12.5l0,0.1c-0.3,0.8-0.1,1.7,0.4,2.3
	c0.5,0.7,1.4,1,2.2,1h12.3c0.8,0,1.7-0.4,2.1-1.2c0.4-0.7,0.3-1.8-0.2-2.5l0.1,0.1l-6.2-12.3l0.1,0.2C29.3,19.4,28.3,18.9,27.5,18.9
	z M41.5,21.4h12.1v12.1H41.5V21.4z M27.4,21.7l5.9,11.7H21.5L27.4,21.7z M27.6,38.6c-4.9,0-8.8,4-8.8,8.8c0,4.9,4,8.8,8.8,8.8
	c4.9,0,8.8-4,8.8-8.8C36.5,42.5,32.5,38.6,27.6,38.6z M41.4,40c-0.3,0-0.7,0.1-0.9,0.4c-0.5,0.5-0.5,1.3,0,1.9l5.1,5.1l-5.4,5.4
	c-0.5,0.5-0.5,1.3,0,1.9c0.5,0.3,0.8,0.3,1.1,0.3c0.3,0,0.5,0,0.8-0.3l5.4-5.4l5.4,5.4c0.3,0.3,0.5,0.3,0.8,0.3c0.5,0,0.8,0,1.1-0.3
	c0.5-0.5,0.5-1.3,0-1.9l-5.4-5.4l5.1-5.1c0.5-0.5,0.5-1.3,0-1.9c-0.5-0.5-1.3-0.5-1.9,0l-5.1,5.1l-5.1-5.1
	C42.1,40.2,41.7,40,41.4,40z M27.6,41.3c3.4,0,6.2,2.7,6.2,6.2c0,3.4-2.7,6.2-6.2,6.2c-3.4,0-6.2-2.7-6.2-6.2
	C21.5,44,24.2,41.3,27.6,41.3z"/>
</svg>
